<svg xmlns="http://www.w3.org/2000/svg" version="1.1" xmlns:xlink="http://www.w3.org/1999/xlink" xmlns:svgjs="http://svgjs.dev/svgjs" width="2000" height="2024" viewBox="0 0 2000 2024"><g transform="matrix(1,0,0,1,1.767868852458946,0.8194331983804659)"><svg viewBox="0 0 244 247" data-background-color="#ffffff" preserveAspectRatio="xMidYMid meet" height="2024" width="2000" xmlns="http://www.w3.org/2000/svg" xmlns:xlink="http://www.w3.org/1999/xlink"><g id="tight-bounds" transform="matrix(1,0,0,1,-0.21567999999999188,-0.09999999999999432)"><svg viewBox="0 0 244.43135999999998 247.2" height="247.2" width="244.43135999999998"><g><svg></svg></g><g><svg viewBox="0 0 244.43135999999998 247.2" height="247.2" width="244.43135999999998"><g transform="matrix(1,0,0,1,0,96.26094387969924)"><svg viewBox="0 0 244.43135999999998 54.6781122406015" height="54.6781122406015" width="244.43135999999998"><g><svg viewBox="0 0 244.43135999999998 54.6781122406015" height="54.6781122406015" width="244.43135999999998"><g><svg viewBox="0 0 244.43135999999998 54.6781122406015" height="54.6781122406015" width="244.43135999999998"><g><svg viewBox="0 0 244.43135999999998 54.6781122406015" height="54.6781122406015" width="244.43135999999998"><g id="textblocktransform"><svg viewBox="0 0 244.43135999999998 54.6781122406015" height="54.6781122406015" width="244.43135999999998" id="textblock"><g><svg viewBox="0 0 244.43135999999998 54.6781122406015" height="54.6781122406015" width="244.43135999999998"><g transform="matrix(1,0,0,1,0,0)"><svg width="244.43135999999998" viewBox="2.98 -37.667999944875 176.01000000000002 39.377999944875" height="54.6781122406015" data-palette-color="#581bff"><path d="M23-5.86L23-5.86Q22.51-5.81 22.41-5.91L22.41-5.91Q22.22-5.81 22.05-5.71 21.88-5.62 21.68-5.47L21.68-5.47Q21-5.22 20.34-4.83 19.68-4.44 18.99-4.1L18.99-4.1Q18.6-3.91 18.24-3.78 17.87-3.66 17.48-3.47L17.48-3.47Q16.89-3.17 16.31-2.86 15.72-2.54 15.09-2.29L15.09-2.29Q14.75-2.2 14.43-2.1 14.11-2 13.77-1.9L13.77-1.9Q13.38-1.76 13.06-1.59 12.74-1.42 12.4-1.27L12.4-1.27Q12.16-1.17 11.89-1.1 11.62-1.03 11.33-0.88L11.33-0.88Q11.08-0.78 10.91-0.63 10.74-0.49 10.5-0.39L10.5-0.39Q10.11-0.24 9.69-0.1 9.28 0.05 8.89 0.24L8.89 0.24Q8.5 0.44 8.33 0.61 8.15 0.78 7.67 0.93L7.67 0.93Q7.18 1.22 7.13 1.25 7.08 1.27 6.98 1.27L6.98 1.27Q6.84 1.37 6.71 1.44 6.59 1.51 6.45 1.61L6.45 1.61Q6.15 1.61 5.86 1.66 5.57 1.71 5.27 1.71L5.27 1.71Q4.93 1.51 4.81 1.32 4.69 1.12 4.69 0.78L4.69 0.78Q4.49 0.54 4.32 0.24 4.15-0.05 3.96-0.29L3.96-0.29Q3.61-0.1 3.54-0.32 3.47-0.54 3.42-0.81 3.37-1.07 3.32-1.34 3.27-1.61 3.22-1.71L3.22-1.71Q2.98-2.64 2.98-3.08L2.98-3.08Q2.98-3.32 3.08-3.39 3.17-3.47 3.17-3.61L3.17-3.61Q3.22-4.1 3.27-4.74 3.32-5.37 3.32-6.05 3.32-6.74 3.32-7.42 3.32-8.11 3.32-8.64L3.32-8.64Q3.32-10.84 3.27-12.92 3.22-14.99 3.22-17.09L3.22-17.09Q3.22-18.07 3.27-19.04 3.32-20.02 3.32-21L3.32-21Q3.32-23.39 3.39-25.73 3.47-28.08 3.47-30.47L3.47-30.47Q3.47-31.45 3.37-32.45 3.27-33.45 3.22-34.47L3.22-34.47Q3.17-35.01 3.27-35.33 3.37-35.64 3.32-35.99L3.32-35.99Q3.47-36.04 3.86-36.04 4.25-36.04 4.66-36.06 5.08-36.08 5.44-36.11 5.81-36.13 5.91-36.18L5.91-36.18Q6.25-35.94 6.59-35.94L6.59-35.94Q6.93-35.94 7.23-36.23L7.23-36.23Q7.47-36.13 7.5-36.08 7.52-36.04 7.76-36.04L7.76-36.04Q8.2-36.08 8.45-36.11 8.69-36.13 8.89-36.13L8.89-36.13Q9.42-35.74 9.55-35.18 9.67-34.62 9.72-34.01 9.77-33.4 9.79-32.79 9.81-32.18 9.81-31.79L9.81-31.79Q9.81-31.49 9.86-31.18 9.91-30.86 9.91-30.52L9.91-30.52Q9.91-30.27 9.89-30.03 9.86-29.79 9.86-29.54L9.86-29.54Q9.86-28.13 9.89-26.66 9.91-25.2 9.91-23.78L9.91-23.78Q9.91-21.24 9.84-18.68 9.77-16.11 9.77-13.57L9.77-13.57Q9.77-13.04 9.81-12.5 9.86-11.96 9.86-11.43L9.86-11.43Q9.86-11.13 9.84-10.84 9.81-10.55 9.81-10.25L9.81-10.25Q9.81-8.45 9.96-6.64L9.96-6.64Q10.16-6.69 10.79-6.91 11.43-7.13 12.11-7.4 12.79-7.67 13.38-7.93 13.96-8.2 14.11-8.35L14.11-8.35Q14.31-8.35 14.65-8.5 14.99-8.64 15.38-8.86 15.77-9.08 16.14-9.28 16.5-9.47 16.65-9.62L16.65-9.62Q16.6-10.6 16.6-11.6 16.6-12.6 16.6-13.57L16.6-13.57Q16.6-16.26 16.67-18.95 16.75-21.63 16.75-24.41L16.75-24.41Q16.75-26.12 16.7-27.83 16.65-29.54 16.65-31.25L16.65-31.25Q16.65-31.79 16.67-32.35 16.7-32.91 16.7-33.45L16.7-33.45Q16.7-34.28 16.67-35.08 16.65-35.89 16.75-36.72L16.75-36.72Q17.24-36.96 17.29-36.96L17.29-36.96Q17.58-36.96 17.7-36.96 17.82-36.96 17.92-36.87L17.92-36.87Q18.07-36.82 18.19-36.84 18.31-36.87 18.46-36.87L18.46-36.87Q18.7-36.87 18.95-36.77 19.19-36.67 19.43-36.67L19.43-36.67Q19.82-36.72 19.85-36.57 19.87-36.43 20.02-36.43L20.02-36.43Q20.41-36.57 20.56-36.43L20.56-36.43Q20.7-36.33 21.09-36.16 21.48-35.99 21.92-35.79 22.36-35.6 22.71-35.42 23.05-35.25 23.05-35.11L23.05-35.11Q23.19-34.33 23.14-33.45 23.1-32.57 23.1-31.79L23.1-31.79Q23.1-31.1 23.14-30.42 23.19-29.74 23.19-29.05L23.19-29.05Q23.19-28.66 23.19-28.27 23.19-27.88 23.24-27.54L23.24-27.54Q23.29-27.29 23.29-27.12 23.29-26.95 23.29-26.76L23.29-26.76Q23.29-26.51 23.39-26.12L23.39-26.12Q23.34-25.88 23.34-25.61 23.34-25.34 23.34-25.1L23.34-25.1Q23.34-24.41 23.39-23.68 23.44-22.95 23.44-22.22L23.44-22.22Q23.44-21.73 23.36-21.29 23.29-20.85 23.29-20.41L23.29-20.41 23.34-19.48Q23.34-18.99 23.39-18.51 23.44-18.02 23.44-17.48L23.44-17.48Q23.44-17.24 23.41-16.99 23.39-16.75 23.34-16.5L23.34-16.5Q23.29-16.26 23.29-15.97 23.29-15.67 23.29-15.43L23.29-15.43Q23.29-14.75 23.34-14.06 23.39-13.38 23.39-12.7L23.39-12.7Q23.39-12.26 23.36-11.84 23.34-11.43 23.34-10.99L23.34-10.99Q23.34-10.11 23.41-9.18 23.49-8.25 23.49-7.37L23.49-7.37Q23.49-6.98 23.39-6.54 23.29-6.1 23-5.86ZM44.38-5.62L44.38-5.62Q44.28-5.32 44.28-5.08L44.28-5.08Q44.28-4.79 44.36-4.49 44.43-4.2 44.43-3.91L44.43-3.91Q44.33-3.03 44.28-2.83L44.28-2.83Q43.99-2.59 43.09-2.27 42.19-1.95 40.94-1.64 39.69-1.32 38.25-1 36.81-0.68 35.5-0.39 34.18-0.1 33.08 0.12 31.98 0.34 31.44 0.44L31.44 0.44Q31.2 0.49 30.98 0.56 30.76 0.63 30.52 0.73L30.52 0.73Q30.27 0.78 30.03 0.76 29.78 0.73 29.54 0.83L29.54 0.83Q29.39 0.83 29.27 0.68 29.15 0.54 29.05 0.44L29.05 0.44Q29.05 0.15 28.95 0 28.85-0.15 28.73-0.24 28.61-0.34 28.51-0.46 28.42-0.59 28.42-0.88L28.42-0.88Q28.32-1.27 28.15-1.49 27.98-1.71 27.98-1.9L27.98-1.9Q27.78-2.54 27.78-3.03L27.78-3.03Q27.78-3.27 27.83-3.42 27.88-3.56 27.98-3.71L27.98-3.71Q28.27-3.81 28.42-3.96 28.56-4.1 28.81-4.2L28.81-4.2Q29.1-4.35 29.64-4.47 30.17-4.59 30.81-4.74 31.44-4.88 32.03-5.03 32.61-5.18 33.01-5.32L33.01-5.32Q33.15-5.37 33.3-5.37 33.44-5.37 33.54-5.47L33.54-5.47Q33.44-6.25 33.42-7.03 33.4-7.81 33.3-8.54L33.3-8.54Q33.3-8.89 33.25-9.23 33.2-9.57 33.2-9.86L33.2-9.86 33.25-10.89Q33.25-12.74 33.1-14.6 32.96-16.46 32.96-18.31L32.96-18.31 32.96-19.97Q32.96-20.36 32.93-20.7 32.91-21.04 32.91-21.44L32.91-21.44Q32.91-22.36 32.93-23.22 32.96-24.07 32.96-25L32.96-25 32.96-29.49Q31.88-29.74 30.95-29.47 30.03-29.2 29.05-29.1L29.05-29.1Q28.71-29.44 28.66-29.83L28.66-29.83Q28.27-30.37 28.12-30.52 27.98-30.66 27.78-31.35L27.78-31.35Q27.44-32.03 27.22-32.2 27-32.37 27-32.76L27-32.76Q27-33.01 27.12-33.11 27.24-33.2 27.34-33.45L27.34-33.45Q27.78-33.64 27.85-33.72 27.93-33.79 28.02-33.84L28.02-33.84Q28.51-34.18 29.15-34.33 29.78-34.47 30.37-34.67L30.37-34.67Q30.86-34.81 31.3-35.01 31.74-35.21 32.27-35.35L32.27-35.35Q32.91-35.55 33.54-35.74 34.18-35.94 34.76-36.08L34.76-36.08Q35.15-36.18 35.52-36.16 35.89-36.13 36.28-36.38L36.28-36.38Q36.91-36.28 37.62-36.4 38.33-36.52 39.16-36.72 39.99-36.91 40.77-37.06 41.55-37.21 41.94-37.3L41.94-37.3Q42.19-37.21 42.28-37.06 42.38-36.91 42.58-36.87L42.58-36.87Q42.62-36.72 42.67-36.5 42.72-36.28 42.87-36.18L42.87-36.18Q42.87-35.64 43.11-35.4L43.11-35.4Q43.06-34.91 43.28-34.3 43.5-33.69 43.5-33.15L43.5-33.15Q43.26-32.42 42.7-32.23 42.14-32.03 41.48-31.88 40.82-31.74 40.18-31.62 39.55-31.49 39.16-31.35L39.16-31.35Q39.16-30.66 39.18-29.93 39.21-29.2 39.21-28.47L39.21-28.47Q39.21-27.78 39.18-27.1 39.16-26.42 39.16-25.73L39.16-25.73Q39.16-24.71 39.13-23.63 39.11-22.56 39.11-21.48L39.11-21.48Q39.11-19.97 39.16-18.46 39.21-16.94 39.3-15.43L39.3-15.43Q39.35-15.19 39.35-14.7L39.35-14.7Q39.35-12.74 39.43-10.86 39.5-8.98 39.69-6.98L39.69-6.98Q40.33-6.93 40.67-7.18L40.67-7.18Q40.92-7.18 41.14-7.28 41.35-7.37 41.55-7.47L41.55-7.47Q41.84-7.52 42.36-7.64 42.87-7.76 43.02-7.76L43.02-7.76Q43.45-7.71 43.55-7.76L43.55-7.76Q43.7-7.47 43.99-7.32L43.99-7.32Q44.09-6.88 44.16-6.47 44.24-6.05 44.38-5.62ZM100.53-0.15L100.53-0.15Q100.29 0.1 99.99 0.15 99.7 0.2 99.41 0.2L99.41 0.2Q98.67 0.54 97.84 0.54L97.84 0.54Q97.31 0.24 97.26 0.34 97.21 0.44 97.06 0.54L97.06 0.54Q96.33 0.88 95.74 0.9 95.16 0.93 94.77 1.17L94.77 1.17Q94.38 0.88 94.35 0.32 94.33-0.24 94.23-0.63L94.23-0.63Q93.99-0.98 93.89-1.49 93.79-2 93.74-2.54 93.69-3.08 93.62-3.59 93.55-4.1 93.35-4.49L93.35-4.49Q93.3-4.74 93.33-4.93 93.35-5.13 93.25-5.37L93.25-5.37Q93.3-6.2 93.21-6.69 93.11-7.18 93.01-7.71L93.01-7.71Q92.96-8.01 92.96-8.37 92.96-8.74 92.67-8.94L92.67-8.94Q92.81-9.62 92.72-9.96 92.62-10.3 92.57-10.6L92.57-10.6Q92.52-10.99 92.52-11.45 92.52-11.91 92.42-12.3L92.42-12.3Q92.13-14.65 91.79-16.99 91.45-19.34 91.15-21.68L91.15-21.68Q90.86-21.44 90.74-20.95 90.62-20.46 90.52-20.07L90.52-20.07Q90.23-19.19 89.98-18.26 89.74-17.33 89.49-16.46L89.49-16.46Q89.4-16.06 89.32-15.55 89.25-15.04 89.1-14.65L89.1-14.65Q88.62-13.23 88.25-12.21 87.88-11.18 87.54-10.11L87.54-10.11Q87.44-9.52 87.35-8.98 87.25-8.45 87.15-7.91L87.15-7.91Q87.1-7.62 87-7.08 86.91-6.54 86.81-6.3L86.81-6.3Q86.71-6.05 86.64-5.96 86.56-5.86 86.61-5.62L86.61-5.62Q86.13-4.88 85.95-4 85.78-3.13 85.34-2.29L85.34-2.29Q85.34-1.71 84.9-1.27L84.9-1.27Q84.66-1.22 84.44-1.17 84.22-1.12 83.98-0.98L83.98-0.98Q83.73-1.07 83.42-1.1 83.1-1.12 82.81-1.12L82.81-1.12Q82.56-1.17 82.37-1.29 82.17-1.42 81.93-1.46L81.93-1.46Q81.68-1.76 81.39-1.98 81.1-2.2 80.8-2.44L80.8-2.44Q80.51-3.17 80.27-3.42L80.27-3.42Q80.12-3.96 79.88-4.42 79.63-4.88 79.53-5.47L79.53-5.47Q79.39-6.01 79.17-6.47 78.95-6.93 78.7-7.47L78.7-7.47Q78.61-7.81 78.48-8.13 78.36-8.45 78.22-8.79L78.22-8.79Q78.17-9.18 77.95-9.77 77.73-10.35 77.63-10.79L77.63-10.79Q77.63-10.84 77.46-11.3 77.29-11.77 77.12-12.3 76.95-12.84 76.77-13.28 76.6-13.72 76.56-13.77L76.56-13.77Q76.46-14.01 76.38-14.23 76.31-14.45 76.21-14.75L76.21-14.75Q76.02-15.38 75.72-16.04 75.43-16.7 75.14-17.29L75.14-17.29Q74.89-17.77 74.8-18.24 74.7-18.7 74.55-19.14L74.55-19.14Q74.46-19.38 74.38-19.58 74.31-19.78 74.21-20.02L74.21-20.02Q74.11-20.31 74.02-20.63 73.92-20.95 73.82-21.29L73.82-21.29Q73.58-21.19 73.6-20.87 73.63-20.56 73.58-20.31L73.58-20.31Q73.48-19.78 73.48-19.26 73.48-18.75 73.43-18.21L73.43-18.21Q73.33-17.63 73.23-17.09 73.14-16.55 73.09-16.02L73.09-16.02Q73.09-14.7 72.94-13.38L72.94-13.38Q72.84-12.21 72.7-11.01 72.55-9.81 72.5-8.54L72.5-8.54Q72.5-7.62 72.31-6.71 72.11-5.81 72.21-4.83L72.21-4.83Q72.11-4.64 72.11-4.54 72.11-4.44 72.11-4.25L72.11-4.25Q72.11-4 72.09-3.71 72.06-3.42 72.06-3.17L72.06-3.17Q72.06-2.73 72.16-2.59L72.16-2.59Q72.01-2.15 72.01-1.64 72.01-1.12 72.01-0.63L72.01-0.63Q71.92-0.44 71.89-0.24 71.87-0.05 71.72 0.15L71.72 0.15Q71.77 0.98 71.23 0.98L71.23 0.98Q71.09 0.98 70.92 0.9 70.74 0.83 70.65 0.68L70.65 0.68Q70.11 0.73 70.04 0.44 69.96 0.15 69.72 0.2L69.72 0.2Q69.13 0.44 69.06 0.34 68.99 0.24 68.74 0.29L68.74 0.29Q68.35-0.1 68.23-0.05 68.11 0 68.01 0L68.01 0Q67.57-0.15 67.52-0.07 67.47 0 67.33 0L67.33 0Q67.08-0.24 66.67-0.24 66.25-0.24 65.96-0.29L65.96-0.29Q65.91-0.49 65.89-0.66 65.86-0.83 65.86-1.07L65.86-1.07Q65.86-1.37 65.89-1.64 65.91-1.9 65.91-2.2L65.91-2.2Q65.91-2.44 65.89-2.71 65.86-2.98 65.86-3.32L65.86-3.32Q65.86-3.66 65.91-3.98 65.96-4.3 65.96-4.69L65.96-4.69Q65.96-4.83 65.91-4.96 65.86-5.08 65.86-5.27L65.86-5.27Q66.15-5.91 66.13-6.27 66.11-6.64 66.15-6.98L66.15-6.98Q66.25-7.81 66.33-8.62 66.4-9.42 66.5-10.25L66.5-10.25Q66.5-11.62 66.57-12.52 66.64-13.43 66.79-14.36L66.79-14.36Q66.89-14.79 66.96-15.19 67.03-15.58 67.13-16.02L67.13-16.02Q67.23-16.75 67.25-17.55 67.28-18.36 67.38-19.14L67.38-19.14Q67.47-20.36 67.62-21.56 67.77-22.75 67.86-23.93L67.86-23.93Q67.96-24.85 68.08-25.76 68.21-26.66 68.21-27.49L68.21-27.49Q68.21-27.93 68.33-28.61 68.45-29.3 68.5-29.79L68.5-29.79Q68.6-30.96 68.67-32.08 68.74-33.2 68.74-34.33L68.74-34.33 68.74-34.86Q68.74-34.96 68.84-35.06 68.94-35.16 68.94-35.4L68.94-35.4Q68.94-35.84 69.16-36.01 69.38-36.18 69.52-36.57L69.52-36.57Q69.77-36.57 70.09-36.52 70.4-36.47 70.55-36.23L70.55-36.23Q70.89-36.33 71.23-36.33 71.57-36.33 71.82-36.57L71.82-36.57Q72.11-36.57 72.26-36.43 72.4-36.28 72.65-36.18L72.65-36.18Q72.84-36.28 73.04-36.35 73.23-36.43 73.43-36.52L73.43-36.52Q73.58-36.43 73.65-36.3 73.72-36.18 73.87-36.13L73.87-36.13Q74.6-36.33 74.85-36.18L74.85-36.18Q74.94-35.99 74.97-35.79 74.99-35.6 75.04-35.4L75.04-35.4Q75.53-34.91 75.68-34.3 75.82-33.69 76.21-33.2L76.21-33.2Q76.31-32.91 76.43-32.62 76.56-32.32 76.65-31.93L76.65-31.93 76.8-31.35Q76.99-30.86 77.29-30.18L77.29-30.18Q77.53-29.25 77.73-28.27 77.92-27.29 78.36-26.46L78.36-26.46Q78.41-26.17 78.53-25.76 78.65-25.34 78.75-25.05L78.75-25.05Q79.09-24.22 79.46-23.41 79.83-22.61 80.12-21.68L80.12-21.68Q80.41-20.75 80.63-19.78 80.85-18.8 81.19-17.87L81.19-17.87Q81.49-16.99 81.63-16.6 81.78-16.21 82.02-15.82L82.02-15.82Q82.02-15.67 82.1-15.33 82.17-14.99 82.32-14.62 82.46-14.26 82.61-13.94 82.76-13.62 82.9-13.57L82.9-13.57Q83.05-13.67 83.07-13.87 83.1-14.06 83.24-14.21L83.24-14.21Q83.29-14.75 83.42-15.53 83.54-16.31 83.78-16.8L83.78-16.8Q83.78-17.04 83.9-17.7 84.03-18.36 84.22-19.12 84.42-19.87 84.59-20.51 84.76-21.14 84.9-21.29L84.9-21.29Q85-21.92 85.08-22.07 85.15-22.22 85.25-22.31L85.25-22.31Q85.3-22.71 85.44-23.05 85.59-23.39 85.64-23.78L85.64-23.78Q85.73-24.61 85.88-25.15 86.03-25.68 86.27-26.46L86.27-26.46Q86.47-27.15 86.64-27.86 86.81-28.56 87.05-29.25L87.05-29.25Q87.64-31.1 88.1-32.54 88.57-33.98 89.25-35.35L89.25-35.35Q89.4-35.79 89.49-35.89 89.59-35.99 89.69-36.08L89.69-36.08Q90.08-36.23 90.5-36.23 90.91-36.23 91.35-36.18L91.35-36.18Q91.84-36.38 92.08-36.62L92.08-36.62Q92.28-36.38 92.67-36.38L92.67-36.38Q93.16-36.38 93.35-36.67L93.35-36.67Q93.55-36.57 93.67-36.62 93.79-36.67 94.04-36.57L94.04-36.57Q94.13-36.67 94.28-36.79 94.43-36.91 94.57-36.91L94.57-36.91Q94.96-36.43 95.18-36.16 95.4-35.89 95.5-35.55L95.5-35.55Q95.65-35.11 95.67-34.59 95.7-34.08 95.94-33.64L95.94-33.64Q95.89-33.01 96.01-31.71 96.14-30.42 96.31-28.98 96.48-27.54 96.67-26.32 96.87-25.1 97.01-24.8L97.01-24.8Q96.97-24.17 97.06-23.73 97.16-23.29 97.16-22.85L97.16-22.85Q97.16-22.71 97.21-22.24 97.26-21.78 97.31-21.26 97.36-20.75 97.43-20.29 97.5-19.82 97.55-19.63L97.55-19.63Q97.55-18.75 97.84-18.26L97.84-18.26Q98.09-17.04 98.26-15.82 98.43-14.6 98.58-13.33L98.58-13.33Q98.67-12.7 98.7-12.11 98.72-11.52 98.82-10.89L98.82-10.89Q98.87-10.64 98.94-10.4 99.02-10.16 99.06-9.91L99.06-9.91Q99.16-9.42 99.21-8.98 99.26-8.54 99.36-8.11L99.36-8.11Q99.41-7.86 99.5-7.59 99.6-7.32 99.5-7.03L99.5-7.03Q99.6-6.69 99.58-6.3 99.55-5.91 99.75-5.62L99.75-5.62Q99.75-4.59 99.89-3.81L99.89-3.81Q99.94-3.22 100.19-2.64L100.19-2.64Q100.29-2.05 100.36-1.42 100.43-0.78 100.53-0.15ZM124.99-5.86L124.99-5.86Q124.5-5.81 124.4-5.91L124.4-5.91Q124.21-5.81 124.04-5.71 123.87-5.62 123.67-5.47L123.67-5.47Q122.99-5.22 122.33-4.83 121.67-4.44 120.99-4.1L120.99-4.1Q120.6-3.91 120.23-3.78 119.86-3.66 119.47-3.47L119.47-3.47Q118.89-3.17 118.3-2.86 117.71-2.54 117.08-2.29L117.08-2.29Q116.74-2.2 116.42-2.1 116.1-2 115.76-1.9L115.76-1.9Q115.37-1.76 115.05-1.59 114.74-1.42 114.39-1.27L114.39-1.27Q114.15-1.17 113.88-1.1 113.61-1.03 113.32-0.88L113.32-0.88Q113.08-0.78 112.91-0.63 112.73-0.49 112.49-0.39L112.49-0.39Q112.1-0.24 111.68-0.1 111.27 0.05 110.88 0.24L110.88 0.24Q110.49 0.44 110.32 0.61 110.15 0.78 109.66 0.93L109.66 0.93Q109.17 1.22 109.12 1.25 109.07 1.27 108.97 1.27L108.97 1.27Q108.83 1.37 108.71 1.44 108.58 1.51 108.44 1.61L108.44 1.61Q108.14 1.61 107.85 1.66 107.56 1.71 107.27 1.71L107.27 1.71Q106.92 1.51 106.8 1.32 106.68 1.12 106.68 0.78L106.68 0.78Q106.48 0.54 106.31 0.24 106.14-0.05 105.95-0.29L105.95-0.29Q105.61-0.1 105.53-0.32 105.46-0.54 105.41-0.81 105.36-1.07 105.31-1.34 105.26-1.61 105.21-1.71L105.21-1.71Q104.97-2.64 104.97-3.08L104.97-3.08Q104.97-3.32 105.07-3.39 105.17-3.47 105.17-3.61L105.17-3.61Q105.21-4.1 105.26-4.74 105.31-5.37 105.31-6.05 105.31-6.74 105.31-7.42 105.31-8.11 105.31-8.64L105.31-8.64Q105.31-10.84 105.26-12.92 105.21-14.99 105.21-17.09L105.21-17.09Q105.21-18.07 105.26-19.04 105.31-20.02 105.31-21L105.31-21Q105.31-23.39 105.39-25.73 105.46-28.08 105.46-30.47L105.46-30.47Q105.46-31.45 105.36-32.45 105.26-33.45 105.21-34.47L105.21-34.47Q105.17-35.01 105.26-35.33 105.36-35.64 105.31-35.99L105.31-35.99Q105.46-36.04 105.85-36.04 106.24-36.04 106.66-36.06 107.07-36.08 107.44-36.11 107.8-36.13 107.9-36.18L107.9-36.18Q108.24-35.94 108.58-35.94L108.58-35.94Q108.93-35.94 109.22-36.23L109.22-36.23Q109.46-36.13 109.49-36.08 109.51-36.04 109.76-36.04L109.76-36.04Q110.2-36.08 110.44-36.11 110.68-36.13 110.88-36.13L110.88-36.13Q111.42-35.74 111.54-35.18 111.66-34.62 111.71-34.01 111.76-33.4 111.78-32.79 111.81-32.18 111.81-31.79L111.81-31.79Q111.81-31.49 111.86-31.18 111.9-30.86 111.9-30.52L111.9-30.52Q111.9-30.27 111.88-30.03 111.86-29.79 111.86-29.54L111.86-29.54Q111.86-28.13 111.88-26.66 111.9-25.2 111.9-23.78L111.9-23.78Q111.9-21.24 111.83-18.68 111.76-16.11 111.76-13.57L111.76-13.57Q111.76-13.04 111.81-12.5 111.86-11.96 111.86-11.43L111.86-11.43Q111.86-11.13 111.83-10.84 111.81-10.55 111.81-10.25L111.81-10.25Q111.81-8.45 111.95-6.64L111.95-6.64Q112.15-6.69 112.78-6.91 113.42-7.13 114.1-7.4 114.78-7.67 115.37-7.93 115.96-8.2 116.1-8.35L116.1-8.35Q116.3-8.35 116.64-8.5 116.98-8.64 117.37-8.86 117.76-9.08 118.13-9.28 118.5-9.47 118.64-9.62L118.64-9.62Q118.59-10.6 118.59-11.6 118.59-12.6 118.59-13.57L118.59-13.57Q118.59-16.26 118.67-18.95 118.74-21.63 118.74-24.41L118.74-24.41Q118.74-26.12 118.69-27.83 118.64-29.54 118.64-31.25L118.64-31.25Q118.64-31.79 118.67-32.35 118.69-32.91 118.69-33.45L118.69-33.45Q118.69-34.28 118.67-35.08 118.64-35.89 118.74-36.72L118.74-36.72Q119.23-36.96 119.28-36.96L119.28-36.96Q119.57-36.96 119.69-36.96 119.81-36.96 119.91-36.87L119.91-36.87Q120.06-36.82 120.18-36.84 120.3-36.87 120.45-36.87L120.45-36.87Q120.69-36.87 120.94-36.77 121.18-36.67 121.43-36.67L121.43-36.67Q121.82-36.72 121.84-36.57 121.87-36.43 122.01-36.43L122.01-36.43Q122.4-36.57 122.55-36.43L122.55-36.43Q122.7-36.33 123.09-36.16 123.48-35.99 123.92-35.79 124.36-35.6 124.7-35.42 125.04-35.25 125.04-35.11L125.04-35.11Q125.19-34.33 125.14-33.45 125.09-32.57 125.09-31.79L125.09-31.79Q125.09-31.1 125.14-30.42 125.19-29.74 125.19-29.05L125.19-29.05Q125.19-28.66 125.19-28.27 125.19-27.88 125.23-27.54L125.23-27.54Q125.28-27.29 125.28-27.12 125.28-26.95 125.28-26.76L125.28-26.76Q125.28-26.51 125.38-26.12L125.38-26.12Q125.33-25.88 125.33-25.61 125.33-25.34 125.33-25.1L125.33-25.1Q125.33-24.41 125.38-23.68 125.43-22.95 125.43-22.22L125.43-22.22Q125.43-21.73 125.36-21.29 125.28-20.85 125.28-20.41L125.28-20.41 125.33-19.48Q125.33-18.99 125.38-18.51 125.43-18.02 125.43-17.48L125.43-17.48Q125.43-17.24 125.41-16.99 125.38-16.75 125.33-16.5L125.33-16.5Q125.28-16.26 125.28-15.97 125.28-15.67 125.28-15.43L125.28-15.43Q125.28-14.75 125.33-14.06 125.38-13.38 125.38-12.7L125.38-12.7Q125.38-12.26 125.36-11.84 125.33-11.43 125.33-10.99L125.33-10.99Q125.33-10.11 125.41-9.18 125.48-8.25 125.48-7.37L125.48-7.37Q125.48-6.98 125.38-6.54 125.28-6.1 124.99-5.86ZM140.76-35.99L140.76-35.99Q140.86-35.79 140.98-35.72 141.1-35.64 141.15-35.4L141.15-35.4Q141.49-35.16 141.69-35.03 141.88-34.91 141.93-34.62L141.93-34.62Q142.37-34.28 142.44-34.18 142.52-34.08 142.57-33.94L142.57-33.94Q142.81-33.74 143.03-33.59 143.25-33.45 143.35-33.15L143.35-33.15Q143.74-32.81 143.84-32.62 143.93-32.42 143.98-32.18L143.98-32.18Q143.79-31.84 143.2-31.25 142.61-30.66 141.88-30 141.15-29.35 140.47-28.74 139.78-28.13 139.39-27.78L139.39-27.78Q139.29-27.59 139.15-27.44 139-27.29 138.9-27.1L138.9-27.1Q138.61-26.86 138.37-26.59 138.12-26.32 137.78-26.17L137.78-26.17Q137.29-25.49 136.41-24.83 135.53-24.17 135.24-23.54L135.24-23.54Q135.29-23.39 135.46-23.24 135.63-23.1 135.73-23L135.73-23Q136.12-22.61 136.66-22.29 137.19-21.97 137.59-21.58L137.59-21.58Q137.98-21.24 138.37-20.92 138.76-20.61 139.15-20.26L139.15-20.26Q139.34-20.07 139.64-19.68L139.64-19.68Q140.12-19.29 140.59-18.97 141.05-18.65 141.49-18.26L141.49-18.26Q142.42-17.48 143.3-16.67 144.18-15.87 145.15-15.09L145.15-15.09 145.54-14.65Q145.54-14.26 145.76-13.75 145.98-13.23 146.18-12.89L146.18-12.89Q146.08-12.4 146.2-12.28 146.33-12.16 146.42-12.06L146.42-12.06Q146.37-11.13 146.47-10.84L146.47-10.84Q145.64-10.11 144.93-9.5 144.23-8.89 143.69-8.3L143.69-8.3Q143.25-7.76 142.79-7.35 142.32-6.93 141.78-6.45L141.78-6.45Q141.49-6.05 141.3-5.91L141.3-5.91Q140.95-5.57 140.61-5.37L140.61-5.37Q140.03-4.83 139.47-4.35 138.9-3.86 138.37-3.37L138.37-3.37Q137.98-3.03 137.63-2.71 137.29-2.39 136.95-2L136.95-2Q136.66-1.71 136.29-1.32 135.93-0.93 135.53-0.68L135.53-0.68Q135.39-0.39 135.14-0.17 134.9 0.05 134.7 0.29L134.7 0.29Q134.36 0.49 134.07 0.68 133.78 0.88 133.39 1.07L133.39 1.07Q133 0.78 132.63 0.54 132.26 0.29 131.82 0.2L131.82 0.2Q131.53-0.05 131.38-0.29 131.24-0.54 130.85-0.63L130.85-0.63Q130.75-0.78 130.63-0.95 130.51-1.12 130.41-1.32L130.41-1.32Q129.82-1.37 129.48-2.05L129.48-2.05Q129.58-2.34 129.75-2.49 129.92-2.64 129.82-3.03L129.82-3.03Q130.11-3.52 130.53-3.88 130.94-4.25 131.34-4.64L131.34-4.64Q131.77-5.03 132.14-5.44 132.51-5.86 132.95-6.25L132.95-6.25Q133.19-6.49 133.43-6.71 133.68-6.93 133.97-7.18L133.97-7.18Q134.51-7.71 135.07-8.18 135.63-8.64 136.22-9.18L136.22-9.18Q137-9.96 137.83-10.67 138.66-11.38 139.34-12.26L139.34-12.26Q139.29-12.45 139.2-12.52 139.1-12.6 139.05-12.74L139.05-12.74Q138.27-13.48 137.51-14.18 136.76-14.89 135.88-15.43L135.88-15.43Q135.58-15.72 135.49-15.92L135.49-15.92Q134.61-16.55 133.8-17.33 133-18.12 132.02-18.65L132.02-18.65Q131.82-18.9 131.55-19.07 131.29-19.24 131.04-19.38L131.04-19.38Q130.9-19.63 130.72-19.8 130.55-19.97 130.31-20.07L130.31-20.07Q129.92-20.41 129.8-20.63 129.68-20.85 129.38-20.9L129.38-20.9Q129.28-21.14 129.06-21.29 128.84-21.44 128.6-21.63L128.6-21.63Q128.5-21.92 128.31-22.12L128.31-22.12Q128.26-22.51 128.36-22.68 128.45-22.85 128.5-22.95L128.5-22.95Q128.45-23.24 128.23-23.39 128.01-23.54 128.01-23.88L128.01-23.88Q128.01-24.07 128.14-24.15 128.26-24.22 128.31-24.37L128.31-24.37 128.45-25.1Q128.84-25.39 129.11-25.81 129.38-26.22 129.82-26.46L129.82-26.46Q130.31-27.2 131.04-27.69L131.04-27.69Q131.29-28.08 131.65-28.32 132.02-28.56 132.26-28.96L132.26-28.96Q132.65-29.2 132.92-29.49 133.19-29.79 133.58-30.03L133.58-30.03Q133.68-30.22 133.8-30.35 133.92-30.47 133.97-30.62L133.97-30.62Q135.29-31.88 136.29-32.81 137.29-33.74 138.37-34.67L138.37-34.67Q138.66-34.91 138.95-35.21 139.25-35.5 139.59-35.74L139.59-35.74Q139.68-35.84 139.83-35.84 139.98-35.84 140.12-35.94L140.12-35.94Q140.71-35.94 140.76-35.99ZM156.87-33.2L156.87-33.2Q156.87-32.76 156.58-32.54 156.28-32.32 156.04-31.98L156.04-31.98Q155.55-31.54 155.19-31.08 154.82-30.62 154.33-30.18L154.33-30.18Q154.14-29.98 153.79-29.66 153.45-29.35 153.09-29.03 152.72-28.71 152.35-28.47 151.99-28.22 151.74-28.22L151.74-28.22Q151.35-28.22 150.74-28.49 150.13-28.76 149.69-28.86L149.69-28.86Q149.35-28.91 149.08-28.93 148.81-28.96 148.57-29.2L148.57-29.2Q147.69-29.39 147.45-29.81 147.2-30.22 146.91-30.66L146.91-30.66Q146.91-30.86 147.06-30.91 147.2-30.96 147.3-31.1L147.3-31.1Q147.79-31.74 148.13-32.15 148.47-32.57 148.91-33.01L148.91-33.01Q149.74-33.74 150.5-34.52 151.25-35.3 152.08-35.99L152.08-35.99Q152.48-36.04 152.67-36.28 152.87-36.52 153.26-36.52L153.26-36.52Q153.65-36.52 153.92-36.28 154.18-36.04 154.4-35.72 154.62-35.4 154.84-35.08 155.06-34.77 155.36-34.62L155.36-34.62Q155.7-34.38 156.28-33.98 156.87-33.59 156.87-33.2ZM150.18-24.12L150.18-24.12Q150.52-23.93 150.69-23.61 150.86-23.29 151.21-23.14L151.21-23.14Q151.5-23 151.84-23 152.18-23 152.43-22.9L152.43-22.9Q152.62-22.8 152.72-22.66 152.82-22.51 152.91-22.36L152.91-22.36Q153.21-22.12 153.82-21.92 154.43-21.73 154.62-21.48L154.62-21.48Q154.97-21.04 155.14-20.36 155.31-19.68 155.4-18.92 155.5-18.16 155.55-17.41 155.6-16.65 155.7-16.11L155.7-16.11Q155.8-14.99 155.94-13.89 156.09-12.79 156.09-11.67L156.09-11.67Q156.09-10.55 155.99-9.38 155.89-8.2 155.89-7.08L155.89-7.08Q155.89-6.49 155.87-5.62 155.84-4.74 155.45-4.25L155.45-4.25Q155.4-4.05 155.4-3.56L155.4-3.56 155.4-2Q155.4-1.71 155.45-1.42 155.5-1.12 155.5-0.78L155.5-0.78Q155.5-0.24 155.21 0L155.21 0Q155.06-0.05 154.89-0.05 154.72-0.05 154.57-0.05L154.57-0.05Q154.04-0.05 153.79 0.15L153.79 0.15Q153.26 0.1 152.77 0.05 152.28 0 151.74 0L151.74 0Q150.91 0 149.94 0.24L149.94 0.24Q149.74-0.24 149.77-0.78 149.79-1.32 149.55-1.76L149.55-1.76Q149.5-1.9 149.47-2.03 149.45-2.15 149.45-2.29L149.45-2.29Q149.59-2.88 149.59-3.1 149.59-3.32 149.59-3.56L149.59-3.56Q149.59-4.25 149.55-4.96 149.5-5.66 149.59-6.35L149.59-6.35Q149.59-6.59 149.67-6.79 149.74-6.98 149.74-7.23L149.74-7.23Q149.74-7.47 149.64-7.57 149.55-7.67 149.55-7.81L149.55-7.81Q149.55-7.96 149.57-8.3 149.59-8.64 149.69-8.74L149.69-8.74Q149.69-9.13 149.72-9.5 149.74-9.86 149.74-10.21L149.74-10.21Q149.74-10.99 149.69-11.77 149.64-12.55 149.64-13.28L149.64-13.28Q149.64-13.62 149.59-13.72 149.55-13.82 149.5-13.87 149.45-13.92 149.35-13.94 149.25-13.96 149.2-14.11L149.2-14.11Q149.4-16.26 149.06-18.41 148.72-20.56 148.72-22.75L148.72-22.75Q148.72-23.1 148.81-23.27 148.91-23.44 149.06-23.54 149.2-23.63 149.33-23.75 149.45-23.88 149.5-24.12L149.5-24.12Q149.89-24.02 150.18-24.12ZM169.86-13.33L169.86-13.33Q169.95-13.09 170.59-12.28 171.22-11.47 172.03-10.52 172.83-9.57 173.62-8.69 174.4-7.81 174.69-7.42L174.69-7.42Q175.62-6.05 176.59-4.74 177.57-3.42 178.45-2L178.45-2Q178.69-1.76 178.84-1.39 178.99-1.03 178.99-0.63L178.99-0.63Q178.99-0.2 178.77-0.17 178.55-0.15 178.3-0.05L178.3-0.05Q177.81 0.29 177.42 0.34 177.03 0.39 176.79 0.39L176.79 0.39Q176.25 0.39 175.62 0.37 174.98 0.34 174.54 0.44L174.54 0.44Q174.4 0.49 174.2 0.61 174.01 0.73 173.91 0.73L173.91 0.73Q173.52 0.73 173.35 0.61 173.18 0.49 172.88 0.39L172.88 0.39Q172.49-0.05 172.17-0.54 171.86-1.03 171.52-1.51L171.52-1.51Q171.22-1.86 170.88-2.12 170.54-2.39 170.25-2.78L170.25-2.78Q169.46-3.91 168.66-4.93 167.85-5.96 167.02-6.98L167.02-6.98Q166.63-7.52 166.17-8.01 165.71-8.5 165.31-8.98L165.31-8.98Q164.92-9.52 164.58-10.11 164.24-10.69 163.85-11.23L163.85-11.23Q163.56-11.72 163.02-12.43 162.48-13.13 161.9-13.87 161.31-14.6 160.7-15.26 160.09-15.92 159.65-16.26L159.65-16.26Q159.65-16.6 159.46-16.75 159.26-16.89 159.02-17.09L159.02-17.09Q158.92-17.33 158.77-17.55 158.63-17.77 158.63-18.07L158.63-18.07Q158.63-18.26 158.67-18.41 158.72-18.55 158.77-18.7L158.77-18.7Q158.87-18.9 158.89-19.07 158.92-19.24 159.02-19.43L159.02-19.43Q159.26-20.07 159.72-20.56 160.19-21.04 160.43-21.68L160.43-21.68Q160.48-21.88 160.48-22.05 160.48-22.22 160.58-22.41L160.58-22.41Q160.72-22.71 161.02-23 161.31-23.29 161.55-23.63L161.55-23.63Q161.8-24.07 162.04-24.51 162.29-24.95 162.53-25.39L162.53-25.39Q163.21-26.51 164.05-27.56 164.88-28.61 165.61-29.64L165.61-29.64Q166.29-30.62 166.88-31.57 167.46-32.52 168.15-33.5L168.15-33.5Q168.49-33.98 168.93-34.59 169.37-35.21 169.83-35.79 170.3-36.38 170.78-36.89 171.27-37.4 171.76-37.65L171.76-37.65Q172.59-37.74 172.83-37.38 173.08-37.01 173.52-37.01L173.52-37.01Q174.2-36.87 174.45-36.57 174.69-36.28 174.93-36.04L174.93-36.04Q175.57-36.04 176.01-35.79 176.45-35.55 176.89-35.06L176.89-35.06Q176.69-34.52 176.37-34.08 176.06-33.64 175.81-33.15L175.81-33.15Q175.42-33.01 175.25-32.67 175.08-32.32 174.74-32.08L174.74-32.08Q174.2-31.25 173.66-30.44 173.13-29.64 172.59-28.91L172.59-28.91Q172.35-28.61 172.03-28.44 171.71-28.27 171.52-27.93L171.52-27.93Q171.42-27.78 171.37-27.61 171.32-27.44 171.22-27.29L171.22-27.29Q170.64-26.37 169.9-25.49 169.17-24.61 168.63-23.63L168.63-23.63Q168.39-23.29 168.24-22.92 168.1-22.56 167.9-22.22L167.9-22.22Q167.71-21.92 167.34-21.39 166.97-20.85 166.61-20.29 166.24-19.73 165.97-19.21 165.71-18.7 165.71-18.36L165.71-18.36Q165.75-18.12 166.34-17.38 166.93-16.65 167.63-15.82 168.34-14.99 169-14.26 169.66-13.53 169.86-13.33Z" opacity="1" transform="matrix(1,0,0,1,0,0)" fill="#ffffff" class="wordmark-text-0" data-fill-palette-color="primary" id="text-0"></path></svg></g></svg></g></svg></g></svg></g><g></g></svg></g></svg></g></svg></g><path d="M0 90.261L0 1 244.431 1 244.431 90.261 239.5 90.261 239.5 5.931 4.931 5.931 4.931 90.261 0 90.261M0 156.939L0 246.2 244.431 246.2 244.431 156.939 239.5 156.939 239.5 241.269 4.931 241.269 4.931 156.939 0 156.939" fill="#ffffff" stroke="transparent" data-fill-palette-color="tertiary"></path></svg></g><defs></defs></svg><rect width="244.43135999999998" height="247.2" fill="none" stroke="none" visibility="hidden"></rect></g></svg></g></svg>